BBC Proms 2011, Number 15
Recorded 26 July
Broadcast BBC4 TV on 29 July
Thanks to GringoLoco & the BBC

Kodály:
Dances of Galánta (16 mins)

Bartók:
Piano Concerto No. 1 (24 mins)
Jean-Efflam Bavouzet: piano
Encore - Liszt: Harmonies poétiques et religieuses, No 1: Invocation

Liszt:
A Faust Symphony (62 mins)

Marco Jentzsch: tenor
London Philharmonic Choir (men's voices)
London Symphony Chorus (men's voices)
London Philharmonic Orchestra
Vladimir Jurowski: conductor

*****************************************************

Format: DVD ISO PAL 16:9
Runtime: 2:05
Commentary in English
Fixed English subtitles for vocal section
Interval cut

Video
ID                               : 224 (0xE0)
Format                           : MPEG Video
Format version                   : Version 2
Format profile                   : Main@Main
Format settings, BVOP            : Yes
Format settings, Matrix          : Default
Bit rate mode                    : Variable
Bit rate                         : 3 322 Kbps
Nominal bit rate                 : 9 544 Kbps
Width                            : 720 pixels
Height                           : 576 pixels
Display aspect ratio             : 16:9
Frame rate                       : 25.000 fps
Standard                         : PAL
Color space                      : YUV
Chroma subsampling               : 4:2:0
Bit depth                        : 8 bits
Scan type                        : Interlaced
Scan order                       : Top Field First
Compression mode                 : Lossy
Bits/(Pixel*Frame)               : 0.320

Audio
ID                               : 192 (0xC0)
Format                           : MPEG Audio
Format version                   : Version 1
Format profile                   : Layer 2
Bit rate mode                    : Constant
Bit rate                         : 256 Kbps
Channel(s)                       : 2 channels
Sampling rate                    : 48.0 KHz
Compression mode                 : Lossy

***************************************************

Format: MP4 468p
Runtime: 2:18

Video
ID                               : 1
Format                           : AVC
Format/Info                      : Advanced Video Codec
Format profile                   : Main@L3.0
Format settings, CABAC           : Yes
Format settings, ReFrames        : 4 frames
Codec ID                         : avc1
Codec ID/Info                    : Advanced Video Coding
Duration                         : 2h 18mn
Bit rate mode                    : Constant
Bit rate                         : 1 213 Kbps
Nominal bit rate                 : 1 404 Kbps
Width                            : 832 pixels
Height                           : 468 pixels
Display aspect ratio             : 16:9
Frame rate mode                  : Variable
Frame rate                       : 21.614 fps
Original frame rate              : 25.000 fps
Minimum frame rate               : 0.001 fps
Maximum frame rate               : 25.000 fps
Standard                         : PAL
Color space                      : YUV
Chroma subsampling               : 4:2:0
Bit depth                        : 8 bits
Scan type                        : Progressive
Bits/(Pixel*Frame)               : 0.144
Stream size                      : 1.18 GiB (93%)

Audio
ID                               : 2
Format                           : AAC
Format/Info                      : Advanced Audio Codec
Format profile                   : HE-AAC / LC
Codec ID                         : 40
Duration                         : 2h 18mn
Bit rate mode                    : Variable
Bit rate                         : 81.9 Kbps
Channel(s)                       : 2 channels
Channel positions                : Front: L R
Sampling rate                    : 48.0 KHz / 24.0 KHz
Compression mode                 : Lossy
Stream size                      : 81.3 MiB (6%)

